<svg xmlns:dc="http://purl.org/dc/elements/1.1/" xmlns:cc="http://creativecommons.org/ns#" xmlns:rdf="http://www.w3.org/1999/02/22-rdf-syntax-ns#" xmlns:svg="http://www.w3.org/2000/svg" xmlns="http://www.w3.org/2000/svg" xmlns:sodipodi="http://sodipodi.sourceforge.net/DTD/sodipodi-0.dtd" xmlns:inkscape="http://www.inkscape.org/namespaces/inkscape" version="1.1" x="0px" y="0px" viewBox="0 0 100 100"><g transform="translate(0,-952.36218)"><path style="text-indent:0;text-transform:none;direction:ltr;block-progression:tb;baseline-shift:baseline;color:#000000;enable-background:accumulate;" d="m 50,960.36219 c -23.17217,0 -42.0000003,18.8278 -42.0000003,42.00001 0,23.1722 18.8278303,42 42.0000003,42 23.17219,0 42,-18.8278 42,-42 0,-23.17221 -18.82782,-42 -42,-42 z m 0,4 c 21.0104,0 38,16.9896 38,38.00001 0,21.0104 -16.98959,38 -38,38 -21.01039,0 -38,-16.9896 -38,-38 0,-21.0104 16.98961,-38 38,-38 z m 0,7 c -1.1046,0 -2,0.8954 -2,2 l 0,29.00001 c 0,0.5523 0.23182,1.0444 0.59375,1.4063 6.36253,6.3057 12.74164,12.731 19.09375,19.0937 0.78107,0.7811 2.03143,0.7811 2.8125,0 0.78108,-0.7811 0.78107,-2.0315 0,-2.8125 l -18.5,-18.5 0,-28.18751 c 0,-1.1046 -0.8954,-2 -2,-2 z" fill="#000000" fill-opacity="1" stroke="none" marker="none" visibility="visible" display="inline" overflow="visible"></path></g></svg>