<svg xmlns="http://www.w3.org/2000/svg" xmlns:xlink="http://www.w3.org/1999/xlink" version="1.1" x="0px" y="0px" viewBox="0 0 100 100" enable-background="new 0 0 100 100" xml:space="preserve"><path fill-rule="evenodd" clip-rule="evenodd" d="M67.498,41.381C63.5,54.5,50.5,69.5,50.5,69.5s-13-16-16.997-28.119  C32.864,39.535,32.5,37.562,32.5,35.5c0-9.941,8.059-18,18-18s18,8.059,18,18C68.5,37.562,68.137,39.535,67.498,41.381z M50.5,28.5  c-3.865,0-7,3.134-7,7s3.135,7,7,7c3.866,0,7-3.134,7-7S54.366,28.5,50.5,28.5z M50.5,72.506c8.284,0,15,2.96,15,5.994  c0,3.033-6.716,5.993-15,5.993s-15-2.96-15-5.993C35.5,75.466,42.216,72.506,50.5,72.506z M50.5,82.5c7.29,0,13-1.978,13-4  c0-2.023-5.71-4-13-4s-13,1.977-13,4C37.5,80.522,43.21,82.5,50.5,82.5z"></path></svg>